<?xml version="1.0" encoding="UTF-8" standalone="no"?>
<!DOCTYPE svg PUBLIC "-//W3C//DTD SVG 1.1//EN" "http://www.w3.org/Graphics/SVG/1.1/DTD/svg11.dtd">
<svg width="100%" height="100%" viewBox="0 0 228 50" version="1.1" xmlns="http://www.w3.org/2000/svg" xmlns:xlink="http://www.w3.org/1999/xlink" xml:space="preserve" xmlns:serif="http://www.serif.com/" style="fill-rule:evenodd;clip-rule:evenodd;stroke-linejoin:round;stroke-miterlimit:2;">
    <g transform="matrix(1,0,0,1,-16.770506,-700.34862)">
        <g id="BayarLink-Logo-Shop-Page" serif:id="BayarLink Logo Shop Page" transform="matrix(0.280632,0,0,0.146369,-9.904887,649.63378)">
            <rect x="95.055" y="346.486" width="809.89" height="341.602" style="fill:none;"/>
            <g transform="matrix(1.688313,0,0,1.061298,-349.950899,-89.401354)">
                <path d="M317.226,540.273C321.086,530.048 323.423,515.796 323.423,497.825C323.423,460.335 313.366,435.858 300.972,435.858L273.138,435.858L273.138,652.744L303.004,652.744C315.702,652.744 325.962,627.647 325.962,589.227C325.962,567.229 322.509,550.497 317.226,540.273ZM300.972,482.333C304.731,482.333 307.169,490.389 307.169,501.543C307.169,512.697 304.63,520.753 300.972,520.753L289.392,520.753L289.392,482.333L300.972,482.333ZM303.004,606.268L289.392,606.268L289.392,564.75L303.004,564.75C307.068,564.75 309.709,573.425 309.709,585.509C309.709,597.593 307.068,606.268 303.004,606.268Z" style="fill:rgb(221,8,148);fill-rule:nonzero;"/>
                <path d="M371.473,497.825L371.473,512.387C368.12,500.614 363.143,493.487 356.336,493.487C343.029,493.487 332.058,529.119 332.058,575.284C332.058,621.45 343.029,657.081 356.336,657.081C363.143,657.081 368.12,649.955 371.473,638.181L371.473,652.744L386.711,652.744L386.711,497.825L371.473,497.825ZM359.384,613.085C352.375,613.085 347.295,598.522 347.295,575.284C347.295,552.047 352.375,537.484 359.384,537.484C366.393,537.484 371.473,552.047 371.473,575.284C371.473,598.522 366.393,613.085 359.384,613.085Z" style="fill:rgb(221,8,148);fill-rule:nonzero;"/>
                <path d="M429.884,497.825L420.335,592.635L409.059,497.825L392.298,497.825L412.513,645.617C410.278,664.518 406.926,671.334 399.815,671.334L399.815,714.711C414.037,716.88 423.078,697.36 428.767,648.096L446.138,497.825L429.884,497.825Z" style="fill:rgb(221,8,148);fill-rule:nonzero;"/>
                <path d="M486.569,497.825L486.569,512.387C483.217,500.614 478.239,493.487 471.433,493.487C458.125,493.487 447.154,529.119 447.154,575.284C447.154,621.45 458.125,657.081 471.433,657.081C478.239,657.081 483.217,649.955 486.569,638.181L486.569,652.744L501.807,652.744L501.807,497.825L486.569,497.825ZM474.48,613.085C467.471,613.085 462.392,598.522 462.392,575.284C462.392,552.047 467.471,537.484 474.48,537.484C481.49,537.484 486.569,552.047 486.569,575.284C486.569,598.522 481.49,613.085 474.48,613.085Z" style="fill:rgb(221,8,148);fill-rule:nonzero;"/>
                <path d="M528.219,525.401L528.219,497.825L512.981,497.825L512.981,652.744L528.219,652.744L528.219,582.72C528.219,552.047 537.158,544.301 543.457,547.399L543.457,494.727C537.057,494.727 530.251,504.641 528.219,525.401Z" style="fill:rgb(221,8,148);fill-rule:nonzero;"/>
                <path d="M567.329,605.029L567.329,435.858L551.076,435.858L551.076,652.744L592.726,652.744L592.726,605.029L567.329,605.029Z" style="fill:rgb(0,0,255);fill-rule:nonzero;"/>
                <path d="M606.948,484.192C611.925,484.192 616.09,471.489 616.09,456.307C616.09,441.125 611.925,428.422 606.948,428.422C601.97,428.422 597.805,441.125 597.805,456.307C597.805,471.489 601.97,484.192 606.948,484.192ZM599.329,652.744L614.567,652.744L614.567,497.825L599.329,497.825L599.329,652.744Z" style="fill:rgb(0,0,255);fill-rule:nonzero;"/>
                <path d="M655.505,493.487C648.801,493.487 643.722,500.923 640.979,512.387L640.979,497.825L625.741,497.825L625.741,652.744L640.979,652.744L640.979,568.158C640.979,546.16 644.839,536.245 650.426,536.245C655.302,536.245 659.264,545.23 659.264,564.44L659.264,652.744L674.502,652.744L674.502,557.624C674.502,515.796 665.766,493.487 655.505,493.487Z" style="fill:rgb(0,0,255);fill-rule:nonzero;"/>
                <path d="M733.726,652.744L714.73,575.284L733.218,497.825L715.441,497.825L700.203,565.679L700.203,435.858L684.965,435.858L684.965,652.744L700.203,652.744L700.203,584.27L716.457,652.744L733.726,652.744Z" style="fill:rgb(0,0,255);fill-rule:nonzero;"/>
            </g>
        </g>
    </g>
</svg>
