<?xml version="1.0" encoding="UTF-8" standalone="no"?>
<!DOCTYPE svg PUBLIC "-//W3C//DTD SVG 1.1//EN" "http://www.w3.org/Graphics/SVG/1.1/DTD/svg11.dtd">
<svg width="100%" height="100%" viewBox="0 0 586 134" version="1.1" xmlns="http://www.w3.org/2000/svg" xmlns:xlink="http://www.w3.org/1999/xlink" xml:space="preserve" xmlns:serif="http://www.serif.com/" style="fill-rule:evenodd;clip-rule:evenodd;stroke-linejoin:round;stroke-miterlimit:2;">
    <g transform="matrix(1,0,0,1,-2103.481169,-1350.711307)">
        <g id="BazarLink-Logo-Header" transform="matrix(0.722493,0,0,0.39086,2034.804741,1215.283823)">
            <rect x="95.055" y="346.486" width="809.89" height="341.602" style="fill:none;"/>
            <g transform="matrix(1.348877,0,0,2.649812,-3331.46767,-3711.009528)">
                <path d="M2617.248,1594.763C2621.959,1590.913 2624.811,1585.547 2624.811,1578.78C2624.811,1564.663 2612.536,1555.447 2597.41,1555.447L2563.437,1555.447L2563.437,1637.113L2599.89,1637.113C2615.388,1637.113 2627.911,1627.663 2627.911,1613.197C2627.911,1604.913 2623.695,1598.613 2617.248,1594.763ZM2597.41,1572.947C2601.997,1572.947 2604.973,1575.98 2604.973,1580.18C2604.973,1584.38 2601.873,1587.413 2597.41,1587.413L2583.275,1587.413L2583.275,1572.947L2597.41,1572.947ZM2599.89,1619.613L2583.275,1619.613L2583.275,1603.98L2599.89,1603.98C2604.849,1603.98 2608.073,1607.247 2608.073,1611.797C2608.073,1616.347 2604.849,1619.613 2599.89,1619.613Z" style="fill:rgb(221,8,148);fill-rule:nonzero;"/>
                <path d="M2683.457,1578.78L2683.457,1584.263C2679.365,1579.83 2673.29,1577.147 2664.983,1577.147C2648.741,1577.147 2635.35,1590.563 2635.35,1607.947C2635.35,1625.33 2648.741,1638.747 2664.983,1638.747C2673.29,1638.747 2679.365,1636.063 2683.457,1631.63L2683.457,1637.113L2702.055,1637.113L2702.055,1578.78L2683.457,1578.78ZM2668.703,1622.18C2660.147,1622.18 2653.948,1616.697 2653.948,1607.947C2653.948,1599.197 2660.147,1593.713 2668.703,1593.713C2677.258,1593.713 2683.457,1599.197 2683.457,1607.947C2683.457,1616.697 2677.258,1622.18 2668.703,1622.18Z" style="fill:rgb(221,8,148);fill-rule:nonzero;"/>
                <path d="M2738.755,1620.78L2762.189,1590.447L2762.189,1578.78L2715.074,1578.78L2715.074,1595.113L2737.268,1595.113L2713.834,1625.447L2713.834,1637.113L2763.429,1637.113L2763.429,1620.78L2738.755,1620.78Z" style="fill:rgb(221,8,148);fill-rule:nonzero;"/>
                <path d="M2815.876,1578.78L2815.876,1584.263C2811.784,1579.83 2805.709,1577.147 2797.401,1577.147C2781.159,1577.147 2767.769,1590.563 2767.769,1607.947C2767.769,1625.33 2781.159,1638.747 2797.401,1638.747C2805.709,1638.747 2811.784,1636.063 2815.876,1631.63L2815.876,1637.113L2834.474,1637.113L2834.474,1578.78L2815.876,1578.78ZM2801.121,1622.18C2792.566,1622.18 2786.367,1616.697 2786.367,1607.947C2786.367,1599.197 2792.566,1593.713 2801.121,1593.713C2809.676,1593.713 2815.876,1599.197 2815.876,1607.947C2815.876,1616.697 2809.676,1622.18 2801.121,1622.18Z" style="fill:rgb(221,8,148);fill-rule:nonzero;"/>
                <path d="M2866.71,1589.163L2866.71,1578.78L2848.112,1578.78L2848.112,1637.113L2866.71,1637.113L2866.71,1610.747C2866.71,1599.197 2877.621,1596.28 2885.309,1597.447L2885.309,1577.613C2877.497,1577.613 2869.19,1581.347 2866.71,1589.163Z" style="fill:rgb(221,8,148);fill-rule:nonzero;"/>
                <path d="M2914.446,1619.147L2914.446,1555.447L2894.608,1555.447L2894.608,1637.113L2945.442,1637.113L2945.442,1619.147L2914.446,1619.147Z" style="fill:rgb(0,0,255);fill-rule:nonzero;"/>
                <path d="M2962.801,1573.647C2968.876,1573.647 2973.96,1568.863 2973.96,1563.147C2973.96,1557.43 2968.876,1552.647 2962.801,1552.647C2956.725,1552.647 2951.642,1557.43 2951.642,1563.147C2951.642,1568.863 2956.725,1573.647 2962.801,1573.647ZM2953.502,1637.113L2972.1,1637.113L2972.1,1578.78L2953.502,1578.78L2953.502,1637.113Z" style="fill:rgb(0,0,255);fill-rule:nonzero;"/>
                <path d="M3022.067,1577.147C3013.883,1577.147 3007.684,1579.947 3004.336,1584.263L3004.336,1578.78L2985.738,1578.78L2985.738,1637.113L3004.336,1637.113L3004.336,1605.263C3004.336,1596.98 3009.048,1593.247 3015.867,1593.247C3021.819,1593.247 3026.654,1596.63 3026.654,1603.863L3026.654,1637.113L3045.252,1637.113L3045.252,1601.297C3045.252,1585.547 3034.589,1577.147 3022.067,1577.147Z" style="fill:rgb(0,0,255);fill-rule:nonzero;"/>
                <path d="M3117.537,1637.113L3094.351,1607.947L3116.917,1578.78L3095.219,1578.78L3076.621,1604.33L3076.621,1555.447L3058.023,1555.447L3058.023,1637.113L3076.621,1637.113L3076.621,1611.33L3096.459,1637.113L3117.537,1637.113Z" style="fill:rgb(0,0,255);fill-rule:nonzero;"/>
            </g>
        </g>
    </g>
</svg>
