<?xml version="1.0" encoding="UTF-8" standalone="no"?>
<!DOCTYPE svg PUBLIC "-//W3C//DTD SVG 1.1//EN" "http://www.w3.org/Graphics/SVG/1.1/DTD/svg11.dtd">
<svg width="100%" height="100%" viewBox="0 0 800 300" version="1.1" xmlns="http://www.w3.org/2000/svg" xmlns:xlink="http://www.w3.org/1999/xlink" xml:space="preserve" xmlns:serif="http://www.serif.com/" style="fill-rule:evenodd;clip-rule:evenodd;stroke-linejoin:round;stroke-miterlimit:2;">
    <g id="Artboard1" transform="matrix(0.987788,0,0,0.878215,-93.894026,-304.289043)">
        <rect x="95.055" y="346.486" width="809.89" height="341.602" style="fill:none;"/>
        <g transform="matrix(1.012363,0,0,1.138673,-151.706408,-64.470475)">
            <g transform="matrix(179.166667,0,0,179.166667,260.420719,525.746853)">
                <path d="M0.424,0.012C0.371,0.012 0.321,0.002 0.275,-0.017C0.229,-0.036 0.189,-0.063 0.154,-0.098C0.119,-0.133 0.092,-0.173 0.073,-0.22C0.054,-0.267 0.044,-0.318 0.044,-0.373C0.044,-0.428 0.053,-0.479 0.072,-0.526C0.091,-0.574 0.117,-0.614 0.151,-0.648C0.185,-0.683 0.225,-0.71 0.271,-0.729C0.316,-0.748 0.366,-0.757 0.42,-0.757C0.474,-0.757 0.522,-0.748 0.566,-0.73C0.608,-0.712 0.645,-0.688 0.675,-0.658C0.705,-0.628 0.726,-0.595 0.739,-0.558L0.602,-0.492C0.589,-0.528 0.567,-0.558 0.535,-0.582C0.504,-0.605 0.465,-0.617 0.42,-0.617C0.376,-0.617 0.337,-0.607 0.304,-0.586C0.271,-0.565 0.245,-0.537 0.227,-0.501C0.208,-0.464 0.199,-0.422 0.199,-0.373C0.199,-0.324 0.209,-0.282 0.228,-0.245C0.247,-0.208 0.274,-0.18 0.307,-0.159C0.341,-0.138 0.38,-0.128 0.424,-0.128C0.458,-0.128 0.49,-0.134 0.519,-0.147C0.549,-0.161 0.573,-0.179 0.592,-0.204C0.61,-0.229 0.619,-0.258 0.619,-0.293L0.619,-0.355L0.69,-0.295L0.42,-0.295L0.42,-0.425L0.774,-0.425L0.774,-0.346C0.774,-0.285 0.764,-0.233 0.744,-0.188C0.724,-0.142 0.697,-0.105 0.663,-0.075C0.63,-0.046 0.592,-0.024 0.55,-0.009C0.509,0.005 0.467,0.012 0.424,0.012Z" style="fill:rgb(0,0,255);fill-rule:nonzero;"/>
            </g>
            <g transform="matrix(179.166667,0,0,179.166667,404.470719,525.746853)">
                <path d="M0.326,0.012C0.272,0.012 0.223,-0 0.178,-0.025C0.134,-0.05 0.099,-0.084 0.072,-0.127C0.046,-0.169 0.033,-0.218 0.033,-0.273C0.033,-0.328 0.046,-0.377 0.072,-0.42C0.099,-0.463 0.134,-0.496 0.178,-0.521C0.223,-0.546 0.272,-0.558 0.326,-0.558C0.38,-0.558 0.429,-0.546 0.473,-0.521C0.517,-0.496 0.552,-0.463 0.579,-0.42C0.605,-0.377 0.618,-0.328 0.618,-0.273C0.618,-0.218 0.605,-0.169 0.579,-0.127C0.552,-0.084 0.517,-0.05 0.473,-0.025C0.429,-0 0.38,0.012 0.326,0.012ZM0.326,-0.123C0.353,-0.123 0.377,-0.129 0.398,-0.142C0.418,-0.155 0.434,-0.172 0.446,-0.195C0.457,-0.218 0.463,-0.244 0.463,-0.273C0.463,-0.302 0.457,-0.328 0.446,-0.351C0.434,-0.373 0.418,-0.391 0.398,-0.404C0.377,-0.417 0.353,-0.423 0.326,-0.423C0.299,-0.423 0.275,-0.417 0.254,-0.404C0.233,-0.391 0.217,-0.373 0.206,-0.351C0.194,-0.328 0.188,-0.302 0.188,-0.273C0.188,-0.244 0.194,-0.218 0.206,-0.195C0.217,-0.172 0.233,-0.155 0.254,-0.142C0.275,-0.129 0.299,-0.123 0.326,-0.123Z" style="fill:rgb(0,0,255);fill-rule:nonzero;"/>
            </g>
            <g transform="matrix(179.166667,0,0,179.166667,521.108219,525.746853)">
                <path d="M0.066,-0L0.066,-0.745L0.381,-0.745C0.432,-0.745 0.476,-0.736 0.513,-0.719C0.55,-0.702 0.578,-0.677 0.597,-0.644C0.616,-0.612 0.626,-0.573 0.626,-0.527C0.626,-0.494 0.617,-0.463 0.599,-0.433C0.581,-0.404 0.551,-0.379 0.51,-0.359L0.51,-0.435C0.549,-0.42 0.58,-0.401 0.601,-0.38C0.622,-0.359 0.637,-0.335 0.645,-0.31C0.653,-0.286 0.657,-0.259 0.657,-0.232C0.657,-0.159 0.633,-0.102 0.584,-0.061C0.535,-0.02 0.468,-0 0.381,-0L0.066,-0ZM0.221,-0.135L0.399,-0.135C0.43,-0.135 0.455,-0.144 0.474,-0.162C0.493,-0.18 0.502,-0.203 0.502,-0.232C0.502,-0.261 0.493,-0.285 0.474,-0.303C0.455,-0.321 0.43,-0.33 0.399,-0.33L0.221,-0.33L0.221,-0.135ZM0.221,-0.465L0.392,-0.465C0.416,-0.465 0.435,-0.472 0.45,-0.485C0.464,-0.499 0.471,-0.517 0.471,-0.54C0.471,-0.563 0.464,-0.581 0.45,-0.595C0.435,-0.608 0.416,-0.615 0.392,-0.615L0.221,-0.615L0.221,-0.465Z" style="fill:rgb(10,221,8);fill-rule:nonzero;"/>
            </g>
            <g transform="matrix(179.166667,0,0,179.166667,644.733219,525.746853)">
                <path d="M0.224,0.012C0.185,0.012 0.151,0.006 0.122,-0.007C0.093,-0.02 0.071,-0.038 0.056,-0.061C0.041,-0.085 0.033,-0.113 0.033,-0.146C0.033,-0.177 0.04,-0.204 0.054,-0.228C0.068,-0.251 0.09,-0.271 0.119,-0.287C0.147,-0.303 0.184,-0.314 0.227,-0.321L0.394,-0.348L0.394,-0.238L0.254,-0.213C0.233,-0.209 0.216,-0.202 0.205,-0.193C0.194,-0.183 0.188,-0.169 0.188,-0.151C0.188,-0.134 0.194,-0.121 0.207,-0.112C0.22,-0.103 0.235,-0.098 0.254,-0.098C0.279,-0.098 0.3,-0.103 0.319,-0.114C0.338,-0.125 0.352,-0.139 0.362,-0.158C0.373,-0.176 0.378,-0.196 0.378,-0.218L0.378,-0.36C0.378,-0.381 0.37,-0.398 0.353,-0.412C0.337,-0.426 0.315,-0.433 0.287,-0.433C0.26,-0.433 0.237,-0.426 0.216,-0.411C0.196,-0.396 0.181,-0.377 0.172,-0.353L0.052,-0.41C0.063,-0.441 0.08,-0.467 0.103,-0.489C0.126,-0.511 0.154,-0.528 0.187,-0.54C0.22,-0.552 0.255,-0.558 0.294,-0.558C0.34,-0.558 0.381,-0.55 0.416,-0.533C0.451,-0.516 0.479,-0.493 0.498,-0.464C0.518,-0.434 0.528,-0.399 0.528,-0.36L0.528,-0L0.388,-0L0.388,-0.088L0.422,-0.094C0.406,-0.07 0.388,-0.05 0.369,-0.035C0.35,-0.019 0.328,-0.007 0.304,0.001C0.28,0.008 0.253,0.012 0.224,0.012Z" style="fill:rgb(10,221,8);fill-rule:nonzero;"/>
            </g>
            <g transform="matrix(179.166667,0,0,179.166667,749.187386,525.746853)">
                <path d="M0.14,0.22C0.124,0.22 0.108,0.219 0.093,0.216C0.079,0.213 0.065,0.209 0.054,0.203L0.054,0.08C0.063,0.083 0.074,0.085 0.087,0.087C0.1,0.089 0.111,0.09 0.122,0.09C0.151,0.09 0.172,0.083 0.185,0.07C0.198,0.056 0.208,0.04 0.216,0.023L0.253,-0.062L0.251,0.063L0.011,-0.546L0.172,-0.546L0.331,-0.113L0.271,-0.113L0.43,-0.546L0.591,-0.546L0.357,0.051C0.342,0.088 0.324,0.12 0.303,0.145C0.282,0.17 0.258,0.189 0.231,0.202C0.204,0.214 0.173,0.22 0.14,0.22Z" style="fill:rgb(10,221,8);fill-rule:nonzero;"/>
            </g>
            <g transform="matrix(179.166667,0,0,179.166667,853.462386,525.746853)">
                <path d="M0.224,0.012C0.185,0.012 0.151,0.006 0.122,-0.007C0.093,-0.02 0.071,-0.038 0.056,-0.061C0.041,-0.085 0.033,-0.113 0.033,-0.146C0.033,-0.177 0.04,-0.204 0.054,-0.228C0.068,-0.251 0.09,-0.271 0.119,-0.287C0.147,-0.303 0.184,-0.314 0.227,-0.321L0.394,-0.348L0.394,-0.238L0.254,-0.213C0.233,-0.209 0.216,-0.202 0.205,-0.193C0.194,-0.183 0.188,-0.169 0.188,-0.151C0.188,-0.134 0.194,-0.121 0.207,-0.112C0.22,-0.103 0.235,-0.098 0.254,-0.098C0.279,-0.098 0.3,-0.103 0.319,-0.114C0.338,-0.125 0.352,-0.139 0.362,-0.158C0.373,-0.176 0.378,-0.196 0.378,-0.218L0.378,-0.36C0.378,-0.381 0.37,-0.398 0.353,-0.412C0.337,-0.426 0.315,-0.433 0.287,-0.433C0.26,-0.433 0.237,-0.426 0.216,-0.411C0.196,-0.396 0.181,-0.377 0.172,-0.353L0.052,-0.41C0.063,-0.441 0.08,-0.467 0.103,-0.489C0.126,-0.511 0.154,-0.528 0.187,-0.54C0.22,-0.552 0.255,-0.558 0.294,-0.558C0.34,-0.558 0.381,-0.55 0.416,-0.533C0.451,-0.516 0.479,-0.493 0.498,-0.464C0.518,-0.434 0.528,-0.399 0.528,-0.36L0.528,-0L0.388,-0L0.388,-0.088L0.422,-0.094C0.406,-0.07 0.388,-0.05 0.369,-0.035C0.35,-0.019 0.328,-0.007 0.304,0.001C0.28,0.008 0.253,0.012 0.224,0.012Z" style="fill:rgb(10,221,8);fill-rule:nonzero;"/>
            </g>
            <g transform="matrix(179.166667,0,0,179.166667,957.916552,525.746853)">
                <path d="M0.055,-0L0.055,-0.546L0.195,-0.546L0.195,-0.415L0.185,-0.434C0.197,-0.48 0.217,-0.511 0.244,-0.527C0.272,-0.544 0.305,-0.552 0.343,-0.552L0.375,-0.552L0.375,-0.422L0.328,-0.422C0.291,-0.422 0.262,-0.411 0.239,-0.389C0.216,-0.366 0.205,-0.335 0.205,-0.294L0.205,-0L0.055,-0Z" style="fill:rgb(10,221,8);fill-rule:nonzero;"/>
            </g>
            <g transform="matrix(179.166667,0,0,179.166667,1027.074886,525.746853)">
            </g>
        </g>
        <g transform="matrix(1.012363,0,0,1.138673,-151.650899,177.290228)">
            <g transform="matrix(58.333333,0,0,58.333333,994.682887,427.638027)">
            </g>
            <text x="292.758px" y="427.638px" style="font-family:'PlusJakartaSans-Regular', 'Plus Jakarta Sans';font-size:58.333px;">Mudah Urus, Mudah Bay<tspan x="941.6px " y="427.638px ">a</tspan>r</text>
        </g>
    </g>
</svg>
