<?xml version="1.0" encoding="UTF-8" standalone="no"?>
<!DOCTYPE svg PUBLIC "-//W3C//DTD SVG 1.1//EN" "http://www.w3.org/Graphics/SVG/1.1/DTD/svg11.dtd">
<svg width="100%" height="100%" viewBox="0 0 200 200" version="1.1" xmlns="http://www.w3.org/2000/svg" xmlns:xlink="http://www.w3.org/1999/xlink" xml:space="preserve" xmlns:serif="http://www.serif.com/" style="fill-rule:evenodd;clip-rule:evenodd;stroke-linejoin:round;stroke-miterlimit:2;">
    <g transform="matrix(1,0,0,1,-1197.041413,-925.711307)">
        <g id="ICON-LOGO-BAYARLINK" serif:id="ICON LOGO BAYARLINK" transform="matrix(2.544615,0,0,1.520416,509.400749,-29.957378)">
            <rect x="270.234" y="628.557" width="78.597" height="131.543" style="fill:none;"/>
            <g transform="matrix(1.097181,0,0,1.096376,-30.080776,-66.916663)">
                <g transform="matrix(0.191342,-0.320472,0.340117,0.569648,-6.519093,380.81438)">
                    <path d="M305.468,769.893C316.432,769.893 325.333,774.9 325.333,781.068C325.333,787.236 316.432,792.244 305.468,792.244L300.06,792.244C248.614,792.244 206.846,768.746 206.846,739.804C206.846,710.861 248.614,687.364 300.06,687.364L305.468,687.364C316.432,687.364 325.333,692.371 325.333,698.539C325.333,704.708 316.432,709.715 305.468,709.715L300.06,709.715C270.541,709.715 246.576,723.198 246.576,739.804C246.576,756.41 270.541,769.893 300.06,769.893L305.468,769.893Z" style="fill:rgb(0,0,255);"/>
                </g>
                <g transform="matrix(0.191342,-0.320472,0.340117,0.569648,-6.519093,380.81438)">
                    <path d="M368.001,709.715C357.037,709.715 348.136,704.708 348.136,698.539C348.136,692.371 357.037,687.364 368.001,687.364L373.409,687.364C424.855,687.364 466.623,710.861 466.623,739.804C466.623,768.746 424.855,792.244 373.409,792.244L368.001,792.244C357.037,792.244 348.136,787.236 348.136,781.068C348.136,774.9 357.037,769.893 368.001,769.893L373.409,769.893C402.927,769.893 426.892,756.41 426.892,739.804C426.892,723.198 402.927,709.715 373.409,709.715L368.001,709.715Z" style="fill:rgb(0,0,255);"/>
                </g>
                <g transform="matrix(0.240325,0,0,0.619264,188.176561,414.437127)">
                    <path d="M465.227,456.361L533.852,411.756L518.991,446.702L544.704,447.589L476.079,492.194L490.94,457.248L465.227,456.361Z" style="fill:rgb(221,8,148);"/>
                </g>
            </g>
            <g transform="matrix(0.390721,0,0,0.653922,165.477921,218.324955)">
                <path d="M349.985,744.538L385.378,709.145" style="fill:none;"/>
            </g>
        </g>
    </g>
</svg>
