<?xml version="1.0" encoding="UTF-8" standalone="no"?>
<!DOCTYPE svg PUBLIC "-//W3C//DTD SVG 1.1//EN" "http://www.w3.org/Graphics/SVG/1.1/DTD/svg11.dtd">
<svg width="100%" height="100%" viewBox="0 0 440 141" version="1.1" xmlns="http://www.w3.org/2000/svg" xmlns:xlink="http://www.w3.org/1999/xlink" xml:space="preserve" xmlns:serif="http://www.serif.com/" style="fill-rule:evenodd;clip-rule:evenodd;stroke-linejoin:round;stroke-miterlimit:2;">
    <g transform="matrix(1,0,0,1,-3947.344097,-603.604551)">
        <g id="Logo-BAZAR-BayarLink-Header" transform="matrix(5.587815,0,0,1.069815,2437.328185,-68.835231)">
            <rect x="270.234" y="628.557" width="78.597" height="131.543" style="fill:none;"/>
            <g transform="matrix(1.138466,0,0,3.55299,-39.827176,-1789.883968)">
                <g>
                    <g transform="matrix(0.047175,0,0,0.026299,284.544038,696.275505)">
                        <path d="M317.226,540.273C321.086,530.048 323.423,515.796 323.423,497.825C323.423,460.335 313.366,435.858 300.972,435.858L273.138,435.858L273.138,652.744L303.004,652.744C315.702,652.744 325.962,627.647 325.962,589.227C325.962,567.229 322.509,550.497 317.226,540.273ZM300.972,482.333C304.731,482.333 307.169,490.389 307.169,501.543C307.169,512.697 304.63,520.753 300.972,520.753L289.392,520.753L289.392,482.333L300.972,482.333ZM303.004,606.268L289.392,606.268L289.392,564.75L303.004,564.75C307.068,564.75 309.709,573.425 309.709,585.509C309.709,597.593 307.068,606.268 303.004,606.268Z" style="fill:rgb(221,8,148);fill-rule:nonzero;"/>
                        <path d="M371.473,497.825L371.473,512.387C368.12,500.614 363.143,493.487 356.336,493.487C343.029,493.487 332.058,529.119 332.058,575.284C332.058,621.45 343.029,657.081 356.336,657.081C363.143,657.081 368.12,649.955 371.473,638.181L371.473,652.744L386.711,652.744L386.711,497.825L371.473,497.825ZM359.384,613.085C352.375,613.085 347.295,598.522 347.295,575.284C347.295,552.047 352.375,537.484 359.384,537.484C366.393,537.484 371.473,552.047 371.473,575.284C371.473,598.522 366.393,613.085 359.384,613.085Z" style="fill:rgb(221,8,148);fill-rule:nonzero;"/>
                        <path d="M429.884,497.825L420.335,592.635L409.059,497.825L392.298,497.825L412.513,645.617C410.278,664.518 406.926,671.334 399.815,671.334L399.815,714.711C414.037,716.88 423.078,697.36 428.767,648.096L446.138,497.825L429.884,497.825Z" style="fill:rgb(221,8,148);fill-rule:nonzero;"/>
                        <path d="M486.569,497.825L486.569,512.387C483.217,500.614 478.239,493.487 471.433,493.487C458.125,493.487 447.154,529.119 447.154,575.284C447.154,621.45 458.125,657.081 471.433,657.081C478.239,657.081 483.217,649.955 486.569,638.181L486.569,652.744L501.807,652.744L501.807,497.825L486.569,497.825ZM474.48,613.085C467.471,613.085 462.392,598.522 462.392,575.284C462.392,552.047 467.471,537.484 474.48,537.484C481.49,537.484 486.569,552.047 486.569,575.284C486.569,598.522 481.49,613.085 474.48,613.085Z" style="fill:rgb(221,8,148);fill-rule:nonzero;"/>
                        <path d="M528.219,525.401L528.219,497.825L512.981,497.825L512.981,652.744L528.219,652.744L528.219,582.72C528.219,552.047 537.158,544.301 543.457,547.399L543.457,494.727C537.057,494.727 530.251,504.641 528.219,525.401Z" style="fill:rgb(221,8,148);fill-rule:nonzero;"/>
                        <path d="M567.329,605.029L567.329,435.858L551.076,435.858L551.076,652.744L592.726,652.744L592.726,605.029L567.329,605.029Z" style="fill:rgb(0,0,255);fill-rule:nonzero;"/>
                        <path d="M606.948,484.192C611.925,484.192 616.09,471.489 616.09,456.307C616.09,441.125 611.925,428.422 606.948,428.422C601.97,428.422 597.805,441.125 597.805,456.307C597.805,471.489 601.97,484.192 606.948,484.192ZM599.329,652.744L614.567,652.744L614.567,497.825L599.329,497.825L599.329,652.744Z" style="fill:rgb(0,0,255);fill-rule:nonzero;"/>
                        <path d="M655.505,493.487C648.801,493.487 643.722,500.923 640.979,512.387L640.979,497.825L625.741,497.825L625.741,652.744L640.979,652.744L640.979,568.158C640.979,546.16 644.839,536.245 650.426,536.245C655.302,536.245 659.264,545.23 659.264,564.44L659.264,652.744L674.502,652.744L674.502,557.624C674.502,515.796 665.766,493.487 655.505,493.487Z" style="fill:rgb(0,0,255);fill-rule:nonzero;"/>
                        <path d="M733.726,652.744L714.73,575.284L733.218,497.825L715.441,497.825L700.203,565.679L700.203,435.858L684.965,435.858L684.965,652.744L700.203,652.744L700.203,584.27L716.457,652.744L733.726,652.744Z" style="fill:rgb(0,0,255);fill-rule:nonzero;"/>
                    </g>
                    <g transform="matrix(0.536214,0,0,0.540692,-1960.406455,405.793626)">
                        <path d="M4223.421,530.541C4224.596,528.848 4225.307,526.487 4225.307,523.511C4225.307,517.302 4222.246,513.247 4218.474,513.247L4210.002,513.247L4210.002,549.17L4219.092,549.17C4222.957,549.17 4226.08,545.013 4226.08,538.65C4226.08,535.006 4225.029,532.235 4223.421,530.541ZM4218.474,520.945C4219.618,520.945 4220.36,522.279 4220.36,524.127C4220.36,525.974 4219.587,527.308 4218.474,527.308L4214.949,527.308L4214.949,520.945L4218.474,520.945ZM4219.092,541.472L4214.949,541.472L4214.949,534.596L4219.092,534.596C4220.329,534.596 4221.133,536.032 4221.133,538.034C4221.133,540.035 4220.329,541.472 4219.092,541.472Z" style="fill:rgb(30,30,255);fill-rule:nonzero;"/>
                        <path d="M4239.932,523.511L4239.932,525.923C4238.911,523.973 4237.396,522.792 4235.325,522.792C4231.274,522.792 4227.935,528.694 4227.935,536.34C4227.935,543.987 4231.274,549.888 4235.325,549.888C4237.396,549.888 4238.911,548.708 4239.932,546.758L4239.932,549.17L4244.569,549.17L4244.569,523.511L4239.932,523.511ZM4236.252,542.601C4234.119,542.601 4232.573,540.189 4232.573,536.34C4232.573,532.492 4234.119,530.08 4236.252,530.08C4238.386,530.08 4239.932,532.492 4239.932,536.34C4239.932,540.189 4238.386,542.601 4236.252,542.601Z" style="fill:rgb(30,30,255);fill-rule:nonzero;"/>
                        <path d="M4253.721,541.985L4259.565,528.643L4259.565,523.511L4247.816,523.511L4247.816,530.695L4253.35,530.695L4247.507,544.038L4247.507,549.17L4259.874,549.17L4259.874,541.985L4253.721,541.985Z" style="fill:rgb(30,30,255);fill-rule:nonzero;"/>
                        <path d="M4272.953,523.511L4272.953,525.923C4271.932,523.973 4270.417,522.792 4268.346,522.792C4264.295,522.792 4260.956,528.694 4260.956,536.34C4260.956,543.987 4264.295,549.888 4268.346,549.888C4270.417,549.888 4271.932,548.708 4272.953,546.758L4272.953,549.17L4277.59,549.17L4277.59,523.511L4272.953,523.511ZM4269.273,542.601C4267.14,542.601 4265.594,540.189 4265.594,536.34C4265.594,532.492 4267.14,530.08 4269.273,530.08C4271.407,530.08 4272.953,532.492 4272.953,536.34C4272.953,540.189 4271.407,542.601 4269.273,542.601Z" style="fill:rgb(30,30,255);fill-rule:nonzero;"/>
                        <path d="M4285.629,528.078L4285.629,523.511L4280.991,523.511L4280.991,549.17L4285.629,549.17L4285.629,537.572C4285.629,532.492 4288.35,531.209 4290.267,531.722L4290.267,522.998C4288.319,522.998 4286.248,524.64 4285.629,528.078Z" style="fill:rgb(30,30,255);fill-rule:nonzero;"/>
                    </g>
                </g>
                <g transform="matrix(0.273327,0,0,0.277485,197.849009,505.823739)">
                    <g transform="matrix(0.191342,-0.320472,0.340117,0.569648,-6.519093,380.81438)">
                        <path d="M305.468,769.893C316.432,769.893 325.333,774.9 325.333,781.068C325.333,787.236 316.432,792.244 305.468,792.244L300.06,792.244C248.614,792.244 206.846,768.746 206.846,739.804C206.846,710.861 248.614,687.364 300.06,687.364L305.468,687.364C316.432,687.364 325.333,692.371 325.333,698.539C325.333,704.708 316.432,709.715 305.468,709.715L300.06,709.715C270.541,709.715 246.576,723.198 246.576,739.804C246.576,756.41 270.541,769.893 300.06,769.893L305.468,769.893Z" style="fill:rgb(0,0,255);"/>
                    </g>
                    <g transform="matrix(0.191342,-0.320472,0.340117,0.569648,-6.519093,380.81438)">
                        <path d="M368.001,709.715C357.037,709.715 348.136,704.708 348.136,698.539C348.136,692.371 357.037,687.364 368.001,687.364L373.409,687.364C424.855,687.364 466.623,710.861 466.623,739.804C466.623,768.746 424.855,792.244 373.409,792.244L368.001,792.244C357.037,792.244 348.136,787.236 348.136,781.068C348.136,774.9 357.037,769.893 368.001,769.893L373.409,769.893C402.927,769.893 426.892,756.41 426.892,739.804C426.892,723.198 402.927,709.715 373.409,709.715L368.001,709.715Z" style="fill:rgb(0,0,255);"/>
                    </g>
                    <g transform="matrix(0.240325,0,0,0.619264,188.176561,414.437127)">
                        <path d="M465.227,456.361L533.852,411.756L518.991,446.702L544.704,447.589L476.079,492.194L490.94,457.248L465.227,456.361Z" style="fill:rgb(221,8,148);"/>
                    </g>
                </g>
            </g>
        </g>
    </g>
</svg>
